<?xml version="1.0" encoding="UTF-8" standalone="no"?>
<svg
   xmlns:dc="http://purl.org/dc/elements/1.1/"
   xmlns:cc="http://creativecommons.org/ns#"
   xmlns:rdf="http://www.w3.org/1999/02/22-rdf-syntax-ns#"
   xmlns:svg="http://www.w3.org/2000/svg"
   xmlns="http://www.w3.org/2000/svg"
   xmlns:sodipodi="http://sodipodi.sourceforge.net/DTD/sodipodi-0.dtd"
   xmlns:inkscape="http://www.inkscape.org/namespaces/inkscape"
   width="204.25833mm"
   height="36.247917mm"
   viewBox="0 0 204.25833 36.247917"
   version="1.1"
   id="svg8"
   inkscape:version="1.0.2 (e86c8708, 2021-01-15)"
   sodipodi:docname="logo.svg">
  <defs
     id="defs2" />
  <sodipodi:namedview
     id="base"
     pagecolor="#ffffff"
     bordercolor="#666666"
     borderopacity="1.0"
     inkscape:pageopacity="0.0"
     inkscape:pageshadow="2"
     inkscape:zoom="0.35"
     inkscape:cx="386"
     inkscape:cy="68.499996"
     inkscape:document-units="in"
     inkscape:current-layer="layer1"
     inkscape:document-rotation="0"
     showgrid="false"
     fit-margin-top="0"
     fit-margin-left="0"
     fit-margin-right="0"
     fit-margin-bottom="0"
     inkscape:window-width="1381"
     inkscape:window-height="943"
     inkscape:window-x="1920"
     inkscape:window-y="23"
     inkscape:window-maximized="0" />
  <metadata
     id="metadata5">
    <rdf:RDF>
      <cc:Work
         rdf:about="">
        <dc:format>image/svg+xml</dc:format>
        <dc:type
           rdf:resource="http://purl.org/dc/dcmitype/StillImage" />
        <dc:title></dc:title>
      </cc:Work>
    </rdf:RDF>
  </metadata>
  <g
     inkscape:label="Layer 1"
     inkscape:groupmode="layer"
     id="layer1"
     transform="translate(-3.7041676,-130.04271)">
    <path
       style="fill:#282525;stroke:none;stroke-width:0.264583"
       d="m 5.3757786,132.43131 c -0.9530186,0.63596 -0.6132777,2.45576 -0.6132777,3.43223 v 9.26042 13.22917 c 0,1.36207 -0.5087038,4.0378 0.2719335,5.20753 0.6882077,1.03134 2.9001296,0.6133 3.9613998,0.6133 3.6864658,0 8.1138978,0.71993 11.3770828,-1.34752 6.029008,-3.82006 5.754317,-11.96851 5.315347,-18.23165 -0.271568,-3.87471 -1.017138,-7.50448 -4.078367,-10.21871 -2.719599,-2.41132 -6.048877,-2.2167 -9.439063,-2.2167 -1.698202,0 -5.3537112,-0.68988 -6.7950554,0.27193 m 90.2229414,0 c -1.303073,0.86948 -0.613304,4.94425 -0.613304,6.34265 v 18.52083 c 0,1.45257 -0.752739,6.02721 0.832908,6.71963 0.683155,0.29818 1.615546,0.15954 2.342092,0.15954 6.979974,0 1.191948,-8.31104 3.711574,-12.08672 0.84402,-1.26484 6.88419,-1.11435 7.31679,0.46056 0.90038,3.27871 -1.11892,7.67196 0.24368,10.79325 0.51885,1.18825 4.82573,1.30572 5.76633,0.56092 1.07368,-0.85037 0.42413,-4.80457 0.42413,-6.07801 v -18.52083 c 0,-1.34856 0.73448,-6.26018 -0.61331,-6.94736 -0.65193,-0.3324 -1.59067,-0.19612 -2.29711,-0.19639 -0.83476,-3.3e-4 -2.09338,-0.21708 -2.82628,0.27193 -0.90911,0.60664 -0.6133,2.23626 -0.6133,3.16765 0,2.08611 0.89773,6.89449 -0.272,8.64714 -0.92498,1.38615 -7.06437,1.11453 -7.36176,-0.71475 -0.53208,-3.27284 0.80751,-7.12105 -0.19077,-10.29814 -0.47069,-1.49864 -4.696351,-1.57152 -5.84967,-0.8019 m -39.203312,0.71822 c -2.108729,0.95398 -0.08176,5.70955 -1.1049,7.43733 -0.837406,1.41428 -2.690547,0.4549 -3.922183,0.99258 -1.199621,0.52383 -0.911754,2.74344 -0.817298,3.80789 0.256911,2.89745 3.936471,0.39618 4.851929,2.66255 2.167467,5.36726 -2.766218,12.74535 4.922044,15.57031 1.122362,0.41222 2.251869,0.54795 3.439583,0.55351 1.072092,0.005 2.953015,0.35004 3.884613,-0.27173 0.978429,-0.65273 0.988483,-4.32541 0.189177,-5.12472 -0.93054,-0.93027 -2.903538,-0.21801 -4.07379,-0.53895 -2.722298,-0.74613 -2.38125,-3.78037 -2.38125,-5.97059 0,-1.24521 -0.539485,-4.20534 0.643996,-5.01973 1.704975,-1.17358 5.363104,1.0844 5.910263,-1.86065 0.09472,-0.5111 0.0717,-1.06884 0.05636,-1.58629 -0.125942,-4.23463 -4.395258,-0.86862 -6.186488,-2.99452 -2.436812,-2.89224 2.269596,-7.88186 -3.599127,-7.85318 -0.586052,0.003 -1.264179,-0.052 -1.812925,0.19619 m -44.185389,5.58667 c 7.711651,-1.34 7.113376,5.92577 7.104565,11.41484 -0.0046,2.83287 -0.191109,7.02575 -3.704167,7.59222 -0.937339,0.15134 -3.283743,0.4572 -3.961394,-0.3802 -0.616347,-0.76174 -0.271939,-2.5876 -0.271939,-3.50785 v -9.26042 c 0,-1.17334 -0.663654,-5.59855 0.832935,-5.85859 m 25.625398,2.00335 c -2.842683,0.35317 -5.795962,1.15501 -7.298796,3.85524 -0.544142,0.97745 -1.554374,3.16085 -0.07038,3.8091 3.654425,1.59629 4.860925,-2.20855 7.898342,-2.21342 1.416579,-0.002 3.478741,0.86005 3.298825,2.62215 -0.139436,1.36816 -2.083859,1.07379 -3.034242,1.07384 -3.097742,1.9e-4 -6.251839,0.26321 -8.319294,2.92084 -3.633628,4.67111 -0.364569,11.0227 5.144294,11.81645 2.814638,0.40561 4.58761,-1.0033 7.133431,-1.24036 1.417373,-0.1323 2.543175,1.19962 4.204494,0.70643 1.671902,-0.49636 0.832908,-6.8752 0.832908,-8.38253 0,-5.93751 1.082675,-13.44289 -6.614583,-14.74112 -1.049867,-0.17709 -2.112698,-0.35859 -3.175,-0.22662 m 41.539583,0 c -2.979738,0.41251 -8.841581,2.63131 -7.849394,6.75034 0.343165,1.42375 1.990196,1.12027 3.086894,1.08305 0.562769,-0.0191 1.224756,0.07 1.752864,-0.16905 0.792427,-0.35877 1.217084,-1.29217 1.955271,-1.76061 1.633802,-1.03659 4.965435,-0.35955 5.144294,1.91619 0.111389,1.42002 -1.531938,1.32498 -2.502429,1.32699 -3.295915,0.007 -6.604529,0.10216 -8.855075,2.92084 -3.754438,4.70207 -0.369888,11.02773 5.150908,11.81645 2.794265,0.39926 4.576498,-1.03769 7.119937,-1.24328 1.359165,-0.1098 2.389188,1.14539 3.976952,0.70935 2.011892,-0.55218 1.073944,-6.93261 1.073944,-8.64711 0,-6.0053 0.894027,-13.34098 -6.879166,-14.51655 -1.065477,-0.16116 -2.09894,-0.33557 -3.175,-0.18661 m 50.006247,-8.2e-4 c -3.10833,0.40815 -9.07336,2.66777 -7.85231,6.99188 0.33391,1.18279 2.15636,0.83486 3.08981,0.83293 0.5543,-10e-4 1.23084,0.0814 1.74889,-0.15965 0.7292,-0.33917 1.04167,-1.24499 1.71847,-1.68997 1.68381,-1.10699 5.05725,-0.52186 5.31654,1.84452 0.15531,1.41703 -1.4814,1.32606 -2.4339,1.32802 -3.31338,0.007 -6.63416,0.0647 -8.89265,2.91145 -3.68988,4.6514 -0.4101,11.18423 5.18848,11.85653 2.64875,0.31777 4.79399,-1.3163 7.14375,-1.21576 1.40097,0.0603 2.41009,1.07474 3.95314,0.65114 1.99522,-0.54768 1.07395,-6.69396 1.07395,-8.38253 0,-6.15944 0.84798,-13.30475 -6.87917,-14.74766 -1.06733,-0.19931 -2.091,-0.36322 -3.175,-0.2209 m 43.39166,0.002 c -13.89009,1.82467 -11.16435,27.45579 3.43959,23.76167 2.33442,-0.59055 7.78457,-4.24682 6.44419,-7.38769 -0.43709,-1.025 -2.90592,-0.64701 -3.79809,-0.60828 -1.64545,0.0717 -1.92247,1.32742 -3.18665,2.08783 -2.09073,1.25783 -5.31309,0.12409 -5.88592,-2.35622 -0.39608,-1.71559 1.61211,-1.58822 2.7223,-1.58872 h 7.14375 c 0.82047,-5e-5 2.109,0.21762 2.75087,-0.42423 0.86413,-0.86424 0.42413,-3.21633 0.42413,-4.33827 -2.6e-4,-5.59139 -4.19973,-9.91515 -10.05417,-9.14609 m 24.34167,0.0125 c -1.37239,0.21381 -2.61911,1.21486 -3.96875,1.31943 -1.47399,0.11422 -4.00949,-2.12524 -5.28426,-0.27316 -0.75379,1.09516 -0.27199,3.62937 -0.27199,4.91236 v 12.43542 c 0,1.29963 -0.66119,4.69238 1.07394,4.98792 0.94457,0.16087 3.82112,0.44053 4.4749,-0.38497 0.58288,-0.73607 0.27199,-2.3995 0.27199,-3.28004 v -8.73125 c 2.7e-4,-2.70695 1.02315,-5.8588 4.49792,-4.91236 2.47544,0.67432 2.38125,3.12722 2.38125,5.17695 v 8.46666 c 0,0.92684 -0.29898,2.55667 0.42413,3.28004 0.78634,0.78634 3.31179,0.55087 4.33334,0.38497 2.26537,-0.3683 1.32795,-5.89703 1.32795,-7.63376 0,-6.06067 0.19288,-17.22101 -9.26042,-15.74821 M 152.4,154.91354 h -0.79375 c -0.31962,-2.16334 -1.29778,-4.26995 -1.96427,-6.35 -0.57467,-1.7931 -1.23613,-5.70404 -2.66859,-6.94735 -0.98742,-0.85696 -5.60175,-0.98956 -5.93169,0.62614 -0.27358,1.34019 1.03955,3.48009 1.48722,4.73371 1.4568,4.07932 3.05303,8.11205 4.56618,12.17084 0.50007,1.3417 0.9734,4.26905 2.42306,4.86754 1.09378,0.45138 4.71249,0.55562 5.62054,-0.26459 0.99748,-0.90117 1.26709,-2.86014 1.73567,-4.07379 1.38588,-3.58888 2.72706,-7.21333 3.9923,-10.84791 0.47122,-1.35364 3.09536,-5.99324 1.94627,-7.21194 -0.90726,-0.96244 -4.91199,-0.7611 -5.78009,0.1523 -0.83555,0.87937 -1.08743,2.50788 -1.50865,3.62005 -1.12977,2.98284 -2.65906,6.37469 -3.1242,9.525 m 24.87083,-5.55625 h -3.175 -2.11667 c -1.87325,-0.004 -3.12314,-1.02965 -1.04669,-2.45332 2.30902,-1.58308 6.12352,-0.50154 6.33836,2.45332 m -141.018944,5.67098 c 1.057539,-0.29861 4.467754,-0.56148 5.35596,0.15721 1.558925,1.26148 -0.348985,3.6013 -1.656027,4.01326 -1.182158,0.37253 -3.40995,0.51911 -4.458494,-0.24818 -1.42875,-1.04564 -0.887412,-3.45745 0.758561,-3.92229 m 41.80152,0 c 1.061508,-0.29544 4.467489,-0.56417 5.358606,0.15721 1.500717,1.21507 -0.388144,3.61003 -1.656821,4.01326 -1.19327,0.37941 -3.397514,0.50879 -4.461668,-0.24818 -1.566598,-1.11469 -1.031082,-3.42384 0.759883,-3.92229 m 49.751724,0.0212 c 1.0496,-0.33438 4.48865,-0.5742 5.38533,0.13597 1.4515,1.14962 -0.17304,3.56267 -1.43193,4.00003 -1.20703,0.41936 -3.62876,0.54795 -4.68471,-0.27517 -1.35731,-1.05754 -0.86651,-3.35174 0.73131,-3.86083 z"
       id="path44" />
  </g>
</svg>
